<svg width="24" height="24" viewBox="0 0 24 24" fill="none" xmlns="http://www.w3.org/2000/svg">
  <g clip-path="url(#clip0_3411_16870)">
  <path d="M20.9855 12.5281C21.0926 10.7059 20.6431 8.89425 19.6966 7.33345C18.7502 5.77266 17.3515 4.53654 15.6863 3.78911C14.021 3.04169 12.1678 2.81828 10.3726 3.14855C8.57736 3.47882 6.92501 4.34714 5.63476 5.6383C4.34452 6.92947 3.47737 8.58243 3.14837 10.3779C2.81938 12.1733 3.0441 14.0263 3.79271 15.6911C4.54132 17.3559 5.77843 18.7536 7.33989 19.699C8.90136 20.6443 10.7134 21.0925 12.5355 20.9841" stroke="#B08BFF" stroke-width="1.5" stroke-linecap="round" stroke-linejoin="round"/>
  <path d="M16 19H22" stroke="#B08BFF" stroke-width="1.5" stroke-linecap="round" stroke-linejoin="round"/>
  <path d="M19 16V22" stroke="#B08BFF" stroke-width="1.5" stroke-linecap="round" stroke-linejoin="round"/>
  <path d="M9 10H9.01" stroke="#B08BFF" stroke-width="1.5" stroke-linecap="round" stroke-linejoin="round"/>
  <path d="M13.0098 10H13.0198" stroke="#B08BFF" stroke-width="1.5" stroke-linecap="round" stroke-linejoin="round"/>
  <path d="M10 14.5977C10.8281 14.9937 11.7978 15.0465 12.6885 14.746C13.5792 14.4455 14.3188 13.816 14.7376 12.9993" stroke="#B08BFF" stroke-width="1.5" stroke-linecap="round" stroke-linejoin="round"/>
  </g>
  <defs>
  <clipPath id="clip0_3411_16870">
  <rect width="24" height="24" fill="white"/>
  </clipPath>
  </defs>
  </svg>
  