<svg width="19" height="19" viewBox="0 0 19 19" fill="none" xmlns="http://www.w3.org/2000/svg">
  <path
    d="M3.88881 5.44442H4.66659C5.07914 5.44442 5.47481 5.28053 5.76653 4.98881C6.05825 4.69708 6.22214 4.30142 6.22214 3.88886C6.22214 3.68258 6.30409 3.48475 6.44995 3.33889C6.59581 3.19303 6.79364 3.11108 6.99992 3.11108H11.6666C11.8729 3.11108 12.0707 3.19303 12.2166 3.33889C12.3624 3.48475 12.4444 3.68258 12.4444 3.88886C12.4444 4.30142 12.6083 4.69708 12.9 4.98881C13.1917 5.28053 13.5874 5.44442 13.9999 5.44442H14.7777C15.1903 5.44442 15.5859 5.60831 15.8776 5.90003C16.1694 6.19175 16.3333 6.58741 16.3333 6.99997V14C16.3333 14.4125 16.1694 14.8082 15.8776 15.0999C15.5859 15.3916 15.1903 15.5555 14.7777 15.5555H3.88881C3.47625 15.5555 3.08059 15.3916 2.78886 15.0999C2.49714 14.8082 2.33325 14.4125 2.33325 14V6.99997C2.33325 6.58741 2.49714 6.19175 2.78886 5.90003C3.08059 5.60831 3.47625 5.44442 3.88881 5.44442Z"
    stroke="#93939d" stroke-width="1.5" stroke-linecap="round" stroke-linejoin="round" />
  <path
    d="M7 10.1111C7 10.7299 7.24583 11.3234 7.68342 11.761C8.121 12.1986 8.7145 12.4444 9.33333 12.4444C9.95217 12.4444 10.5457 12.1986 10.9833 11.761C11.4208 11.3234 11.6667 10.7299 11.6667 10.1111C11.6667 9.49227 11.4208 8.89877 10.9833 8.46119C10.5457 8.0236 9.95217 7.77777 9.33333 7.77777C8.7145 7.77777 8.121 8.0236 7.68342 8.46119C7.24583 8.89877 7 9.49227 7 10.1111Z"
    stroke="#93939d" stroke-width="1.5" stroke-linecap="round" stroke-linejoin="round" />
</svg>