<svg width="22" height="22" viewBox="0 0 22 22" fill="none" xmlns="http://www.w3.org/2000/svg">
  <path
    d="M4.58368 11.9167C4.58368 12.7593 4.74965 13.5937 5.07212 14.3722C5.39459 15.1507 5.86723 15.8581 6.46308 16.4539C7.05892 17.0498 7.76629 17.5224 8.54479 17.8449C9.3233 18.1674 10.1577 18.3333 11.0003 18.3333C11.843 18.3333 12.6774 18.1674 13.4559 17.8449C14.2344 17.5224 14.9418 17.0498 15.5376 16.4539C16.1335 15.8581 16.6061 15.1507 16.9286 14.3722C17.251 13.5937 17.417 12.7593 17.417 11.9167C17.417 11.074 17.251 10.2396 16.9286 9.46111C16.6061 8.68261 16.1335 7.97524 15.5376 7.3794C14.9418 6.78356 14.2344 6.31091 13.4559 5.98844C12.6774 5.66597 11.843 5.5 11.0003 5.5C10.1577 5.5 9.3233 5.66597 8.54479 5.98844C7.76629 6.31091 7.05892 6.78356 6.46308 7.3794C5.86723 7.97524 5.39459 8.68261 5.07212 9.46111C4.74965 10.2396 4.58368 11.074 4.58368 11.9167Z"
    stroke="#93939D" stroke-width="1.5" stroke-linecap="round" stroke-linejoin="round" />
  <path d="M11 9.16626V11.9163H12.8333" stroke="#93939D" stroke-width="1.5" stroke-linecap="round"
    stroke-linejoin="round" />
  <path d="M6.41701 3.66626L3.89618 5.49959" stroke="#93939D" stroke-width="1.5" stroke-linecap="round"
    stroke-linejoin="round" />
  <path d="M15.5837 3.66626L18.1045 5.49959" stroke="#93939D" stroke-width="1.5" stroke-linecap="round"
    stroke-linejoin="round" />
</svg>