<svg width="14" height="14" viewBox="0 0 14 14" fill="none" xmlns="http://www.w3.org/2000/svg">
  <g clip-path="url(#clip0_1942_20638)">
    <path
      d="M2.33334 7.00008C2.33334 7.15479 2.39479 7.30316 2.50419 7.41256C2.61359 7.52196 2.76196 7.58341 2.91667 7.58341C3.07138 7.58341 3.21975 7.52196 3.32915 7.41256C3.43854 7.30316 3.5 7.15479 3.5 7.00008C3.5 6.84537 3.43854 6.697 3.32915 6.5876C3.21975 6.47821 3.07138 6.41675 2.91667 6.41675C2.76196 6.41675 2.61359 6.47821 2.50419 6.5876C2.39479 6.697 2.33334 6.84537 2.33334 7.00008Z"
      fill="#93939D" stroke="#93939D" stroke-linecap="round" stroke-linejoin="round" />
    <path
      d="M6.41666 7.00008C6.41666 7.15479 6.47812 7.30316 6.58752 7.41256C6.69691 7.52196 6.84529 7.58341 7 7.58341C7.15471 7.58341 7.30308 7.52196 7.41248 7.41256C7.52187 7.30316 7.58333 7.15479 7.58333 7.00008C7.58333 6.84537 7.52187 6.697 7.41248 6.5876C7.30308 6.47821 7.15471 6.41675 7 6.41675C6.84529 6.41675 6.69691 6.47821 6.58752 6.5876C6.47812 6.697 6.41666 6.84537 6.41666 7.00008Z"
      fill="#93939D" stroke="#93939D" stroke-linecap="round" stroke-linejoin="round" />
    <path
      d="M10.5 7.00008C10.5 7.15479 10.5615 7.30316 10.6709 7.41256C10.7803 7.52196 10.9286 7.58341 11.0833 7.58341C11.238 7.58341 11.3864 7.52196 11.4958 7.41256C11.6052 7.30316 11.6667 7.15479 11.6667 7.00008C11.6667 6.84537 11.6052 6.697 11.4958 6.5876C11.3864 6.47821 11.238 6.41675 11.0833 6.41675C10.9286 6.41675 10.7803 6.47821 10.6709 6.5876C10.5615 6.697 10.5 6.84537 10.5 7.00008Z"
      fill="#93939D" stroke="#93939D" stroke-linecap="round" stroke-linejoin="round" />
  </g>
  <defs>
    <clipPath id="clip0_1942_20638">
      <rect width="14" height="14" fill="white" />
    </clipPath>
  </defs>
</svg>