<svg width="20" height="20" viewBox="0 0 20 20" fill="none" xmlns="http://www.w3.org/2000/svg">
  <g clip-path="url(#clip0_1986_1290)">
    <path
      d="M1.66667 4.16696V15.8336C1.66667 16.5503 2.51 16.932 3.04917 16.4611L9.71584 10.6278C9.80535 10.5496 9.87708 10.4531 9.92624 10.3449C9.97539 10.2367 10.0008 10.1192 10.0008 10.0003C10.0008 9.88142 9.97539 9.76393 9.92624 9.6557C9.87708 9.54747 9.80535 9.45101 9.71584 9.37279L3.04917 3.53946C2.51 3.06862 1.66667 3.45112 1.66667 4.16696Z"
      fill="white" />
    <path
      d="M10.8333 4.16696V15.8336C10.8333 16.5503 11.6767 16.932 12.2158 16.4611L18.8825 10.6278C18.972 10.5496 19.0437 10.4531 19.0929 10.3449C19.142 10.2367 19.1675 10.1192 19.1675 10.0003C19.1675 9.88142 19.142 9.76393 19.0929 9.6557C19.0437 9.54747 18.972 9.45101 18.8825 9.37279L12.2158 3.53946C11.6767 3.06862 10.8333 3.45112 10.8333 4.16696Z"
      fill="white" />
  </g>
  <defs>
    <clipPath id="clip0_1986_1290">
      <rect width="20" height="20" fill="white" />
    </clipPath>
  </defs>
</svg>