<svg width="24" height="24" viewBox="0 0 24 24" fill="none" xmlns="http://www.w3.org/2000/svg">
  <path
    d="M20.385 6.58511C20.7788 6.19126 21.0001 5.65709 21.0001 5.10011C21.0001 4.54312 20.7788 4.00895 20.385 3.61511C19.9912 3.22126 19.457 3 18.9 3C18.343 3 17.8088 3.22126 17.415 3.61511L9 12.0001V15.0001H12L20.385 6.58511Z"
    stroke="#595961" stroke-width="1.5" stroke-linecap="round" stroke-linejoin="round" />
  <path d="M16 5L19 8" stroke="#595961" stroke-width="1.5" stroke-linecap="round" stroke-linejoin="round" />
  <path d="M7.12 7H7C5.34315 7 4 8.34315 4 10V17C4 18.6569 5.34315 20 7 20H14.4C15.8359 20 17 18.8359 17 17.4V17.4"
    stroke="#595961" stroke-width="1.5" stroke-linecap="round" />
</svg>