<svg width="24" height="24" viewBox="0 0 24 24" fill="none" xmlns="http://www.w3.org/2000/svg">
  <path d="M18.2888 7.93883C18.5841 7.64345 18.7501 7.24282 18.7501 6.82508C18.7501 6.40734 18.5841 6.00672 18.2888 5.71133C17.9934 5.41595 17.5927 5.25 17.175 5.25C16.7573 5.25 16.3566 5.41595 16.0613 5.71133L9.75 12.0001V14.2501H12L18.2888 7.93883Z" stroke="#93939D" stroke-linecap="round" stroke-linejoin="round"/>
  <path d="M15.0004 6.74951L17.2504 8.99951" stroke="#93939D" stroke-linecap="round" stroke-linejoin="round"/>
  <path d="M8.34037 8.25049H8.00037C6.8958 8.25049 6.00037 9.14592 6.00037 10.2505V16.0005C6.00037 17.1051 6.8958 18.0005 8.00037 18.0005H13.8004C14.8773 18.0005 15.7504 17.1274 15.7504 16.0505V16.0505" stroke="#93939D" stroke-linecap="round"/>
  <rect x="0.5" y="0.5" width="23" height="23" rx="4.5" stroke="#ABABB4"/>
  </svg>
  