<svg width="28" height="28" viewBox="0 0 28 28" fill="none" xmlns="http://www.w3.org/2000/svg">
  <path
    d="M6 9C6 10.3261 6.52678 11.5979 7.46447 12.5355C8.40215 13.4732 9.67392 14 11 14C12.3261 14 13.5979 13.4732 14.5355 12.5355C15.4732 11.5979 16 10.3261 16 9C16 7.67392 15.4732 6.40215 14.5355 5.46447C13.5979 4.52678 12.3261 4 11 4C9.67392 4 8.40215 4.52678 7.46447 5.46447C6.52678 6.40215 6 7.67392 6 9Z"
    stroke="#ABABB4" stroke-width="2" stroke-linecap="round" stroke-linejoin="round" />
  <path
    d="M3 25V22.3333C3 20.9188 3.5619 19.5623 4.5621 18.5621C5.56229 17.5619 6.91885 17 8.33333 17H13.6667C15.0812 17 16.4377 17.5619 17.4379 18.5621C18.4381 19.5623 19 20.9188 19 22.3333V25"
    stroke="#ABABB4" stroke-width="2" stroke-linecap="round" stroke-linejoin="round" />
  <path
    d="M18.667 3.65137C19.6708 3.90839 20.5605 4.49219 21.1959 5.31073C21.8313 6.12927 22.1761 7.136 22.1761 8.1722C22.1761 9.2084 21.8313 10.2151 21.1959 11.0337C20.5605 11.8522 19.6708 12.436 18.667 12.693"
    stroke="#ABABB4" stroke-width="2" stroke-linecap="round" stroke-linejoin="round" />
  <path
    d="M24.5 24.5008V22.1674C24.4941 21.1375 24.1476 20.1384 23.5145 19.3259C22.8814 18.5135 21.9973 17.9333 21 17.6758"
    stroke="#ABABB4" stroke-width="2" stroke-linecap="round" stroke-linejoin="round" />
</svg>