<svg width="14" height="14" viewBox="0 0 14 14" fill="none" xmlns="http://www.w3.org/2000/svg">
  <g clip-path="url(#clip0_3108_5577)">
  <path d="M4.6665 4.08333C4.6665 4.70217 4.91234 5.29566 5.34992 5.73325C5.78751 6.17083 6.381 6.41667 6.99984 6.41667C7.61868 6.41667 8.21217 6.17083 8.64975 5.73325C9.08734 5.29566 9.33317 4.70217 9.33317 4.08333C9.33317 3.46449 9.08734 2.871 8.64975 2.43342C8.21217 1.99583 7.61868 1.75 6.99984 1.75C6.381 1.75 5.78751 1.99583 5.34992 2.43342C4.91234 2.871 4.6665 3.46449 4.6665 4.08333Z" fill="#ABABB4"/>
  <path d="M2.625 12.25V10.7917C2.625 10.0181 2.93229 9.27625 3.47927 8.72927C4.02625 8.18229 4.76812 7.875 5.54167 7.875H8.45833C9.23188 7.875 9.97375 8.18229 10.5207 8.72927C11.0677 9.27625 11.375 10.0181 11.375 10.7917V12.25" fill="#ABABB4"/>
  </g>
  <defs>
  <clipPath id="clip0_3108_5577">
  <rect width="14" height="14" fill="white"/>
  </clipPath>
  </defs>
  </svg>
  