<svg width="28" height="28" viewBox="0 0 28 28" fill="none" xmlns="http://www.w3.org/2000/svg">
  <g clip-path="url(#clip0_1600_18680)">
    <path
      d="M15.3786 7.13752C13.8689 6.83434 12.3014 7.0374 10.9188 7.71523C9.53623 8.39307 8.41573 9.50786 7.73084 10.887C7.04595 12.2661 6.8349 13.8325 7.13036 15.3437C7.42583 16.8549 8.21133 18.2265 9.3652 19.2461C10.5191 20.2657 11.9769 20.8763 13.513 20.9835C15.0491 21.0907 16.5776 20.6884 17.8619 19.839C19.1462 18.9895 20.1146 17.7403 20.6171 16.2848C21.1196 14.8293 21.1281 13.2487 20.6414 11.7879"
      stroke="#ABABB4" stroke-width="2" stroke-linecap="round" stroke-linejoin="round" />
    <path
      d="M12.6168 20.8617C14.128 21.1664 15.6976 20.9637 17.0819 20.285C18.4661 19.6063 19.5876 18.4897 20.2723 17.1084C20.9569 15.7271 21.1664 14.1584 20.8682 12.6458C20.57 11.1332 19.7808 9.76144 18.6231 8.74333C17.4655 7.72522 16.0041 7.11776 14.4658 7.01525C12.9276 6.91274 11.3985 7.32092 10.116 8.17642C8.83343 9.03192 7.8692 10.2869 7.37294 11.7465C6.87668 13.2061 6.87616 14.7887 7.37146 16.2487"
      stroke="#ABABB4" stroke-width="2" stroke-linecap="round" stroke-linejoin="round" />
    <path
      d="M4.02199 22.3637L4.16264 6.47955C4.17469 5.11901 5.2874 4.02584 6.64794 4.03789L13.1994 4.0959C16.7017 3.91911 23.6874 5.70417 23.6117 14.2588C23.5359 22.8134 16.5157 24.922 13.0151 24.907L6.46366 24.849C5.10312 24.837 4.00995 23.7243 4.02199 22.3637Z"
      fill="#844AFF" />
    <path d="M10.5743 18.2847C12.4182 18.7147 16.3799 18.4602 17.4753 14.0019" stroke="#EDE4FF" stroke-width="2.5"
      stroke-linecap="round" />
  </g>
  <defs>
    <clipPath id="clip0_1600_18680">
      <rect width="28" height="28" fill="white" />
    </clipPath>
  </defs>
</svg>