<svg width="28" height="28" viewBox="0 0 28 28" fill="none" xmlns="http://www.w3.org/2000/svg">
  <rect width="28" height="28" rx="5" fill="#EDE4FF" />
  <g clip-path="url(#clip0_2494_22824)">
    <path d="M5 8C5 7.44772 5.44772 7 6 7H11V14H5V8Z" stroke="#B08BFF" stroke-width="1.5" />
    <rect x="11" y="7" width="6" height="7" stroke="#B08BFF" stroke-width="1.5" />
    <path d="M17 7H22C22.5523 7 23 7.44772 23 8V14H17V7Z" stroke="#B08BFF" stroke-width="1.5" />
    <path d="M5 14H11V21H6C5.44772 21 5 20.5523 5 20V14Z" stroke="#B08BFF" stroke-width="1.5" />
    <rect x="11" y="14" width="6" height="7" stroke="#B08BFF" stroke-width="1.5" />
    <path d="M17 14H23V20C23 20.5523 22.5523 21 22 21H17V14Z" stroke="#B08BFF" stroke-width="1.5" />
  </g>
  <defs>
    <clipPath id="clip0_2494_22824">
      <rect width="24" height="24" fill="white" transform="translate(2 2)" />
    </clipPath>
  </defs>
</svg>