<svg width="15" height="15" viewBox="0 0 15 15" fill="none" xmlns="http://www.w3.org/2000/svg">
  <path
    d="M13.5558 6.55587C13.3656 5.18715 12.7306 3.91894 11.7487 2.94659C10.7668 1.97424 9.49247 1.3517 8.12196 1.17486C6.75145 0.998015 5.36081 1.27669 4.16426 1.96795C2.96771 2.65921 2.03163 3.72471 1.50022 5.00031M1.11133 1.8892V5.00031H4.22244"
    stroke="#93939D" stroke-width="1.5" stroke-linecap="round" stroke-linejoin="round" />
  <path
    d="M1.11133 8.11133C1.30154 9.48005 1.9365 10.7483 2.91839 11.7206C3.90028 12.693 5.17463 13.3155 6.54514 13.4923C7.91565 13.6692 9.30629 13.3905 10.5028 12.6992C11.6994 12.008 12.6355 10.9425 13.1669 9.66688M13.5558 12.778V9.66688H10.4447"
    stroke="#93939D" stroke-width="1.5" stroke-linecap="round" stroke-linejoin="round" />
</svg>