<svg width="22" height="22" viewBox="0 0 22 22" fill="none" xmlns="http://www.w3.org/2000/svg">
  <path
    d="M18.2718 11.954C18.0987 13.274 17.5696 14.5219 16.7411 15.564C15.9127 16.6061 14.8162 17.403 13.5693 17.8693C12.3223 18.3356 10.972 18.4536 9.66307 18.2108C8.35414 17.968 7.13601 17.3734 6.13931 16.4909C5.1426 15.6084 4.40494 14.4712 4.00542 13.2013C3.60589 11.9314 3.55959 10.5767 3.87147 9.28249C4.18336 7.98828 4.84166 6.80338 5.77578 5.85486C6.7099 4.90635 7.88459 4.23001 9.17388 3.89837C12.748 2.9817 16.4476 4.82145 17.8135 8.24979"
    stroke="#93939D" stroke-width="1.5" stroke-linecap="round" stroke-linejoin="round" />
  <path d="M18.3333 3.66626V8.24959H13.75" stroke="#93939D" stroke-width="1.5" stroke-linecap="round"
    stroke-linejoin="round" />
</svg>