<svg width="28" height="28" viewBox="0 0 28 28" fill="none" xmlns="http://www.w3.org/2000/svg">
  <g clip-path="url(#clip0_1600_18692)">
    <path
      d="M11.6667 14.0001C11.6667 13.3812 11.9125 12.7878 12.3501 12.3502C12.7877 11.9126 13.3812 11.6667 14 11.6667H22.1667C22.7855 11.6667 23.379 11.9126 23.8166 12.3502C24.2542 12.7878 24.5 13.3812 24.5 14.0001V22.1667C24.5 22.7856 24.2542 23.3791 23.8166 23.8167C23.379 24.2542 22.7855 24.5001 22.1667 24.5001H14C13.3812 24.5001 12.7877 24.2542 12.3501 23.8167C11.9125 23.3791 11.6667 22.7856 11.6667 22.1667V14.0001Z"
      stroke="#844AFF" stroke-width="2" stroke-linecap="round" stroke-linejoin="round" />
    <path
      d="M6.42821 15.7385C5.1936 14.5038 4.5 12.8293 4.5 11.0833C4.5 9.33733 5.1936 7.66283 6.42821 6.42821C7.66283 5.1936 9.33733 4.5 11.0833 4.5C12.8293 4.5 14.5038 5.1936 15.7385 6.42821C16.9731 7.66283 17.6667 9.33733 17.6667 11.0833C17.6667 12.8293 16.9731 14.5038 15.7385 15.7385C14.5038 16.9731 12.8293 17.6667 11.0833 17.6667C9.33733 17.6667 7.66283 16.9731 6.42821 15.7385Z"
      fill="#844AFF" stroke="#844AFF" stroke-width="2" stroke-linecap="round" stroke-linejoin="round" />
  </g>
  <defs>
    <clipPath id="clip0_1600_18692">
      <rect width="28" height="28" fill="white" />
    </clipPath>
  </defs>
</svg>