<svg width="28" height="28" viewBox="0 0 28 28" fill="none" xmlns="http://www.w3.org/2000/svg">
  <g clip-path="url(#clip0_1600_18665)">
  <path d="M11.6667 14.0001C11.6667 13.3812 11.9125 12.7878 12.3501 12.3502C12.7877 11.9126 13.3812 11.6667 14 11.6667H22.1667C22.7855 11.6667 23.379 11.9126 23.8166 12.3502C24.2542 12.7878 24.5 13.3812 24.5 14.0001V22.1667C24.5 22.7856 24.2542 23.3791 23.8166 23.8167C23.379 24.2542 22.7855 24.5001 22.1667 24.5001H14C13.3812 24.5001 12.7877 24.2542 12.3501 23.8167C11.9125 23.3791 11.6667 22.7856 11.6667 22.1667V14.0001Z" stroke="#ABABB4" stroke-width="2" stroke-linecap="round" stroke-linejoin="round"/>
  <path d="M3.5 11.0833C3.5 13.0946 4.29896 15.0234 5.72111 16.4456C7.14326 17.8677 9.07211 18.6667 11.0833 18.6667C13.0946 18.6667 15.0234 17.8677 16.4456 16.4456C17.8677 15.0234 18.6667 13.0946 18.6667 11.0833C18.6667 9.07211 17.8677 7.14326 16.4456 5.72111C15.0234 4.29896 13.0946 3.5 11.0833 3.5C9.07211 3.5 7.14326 4.29896 5.72111 5.72111C4.29896 7.14326 3.5 9.07211 3.5 11.0833Z" fill="#FDFCFE" stroke="#ABABB4" stroke-width="2" stroke-linecap="round" stroke-linejoin="round"/>
  </g>
  <defs>
  <clipPath id="clip0_1600_18665">
  <rect width="28" height="28" fill="white"/>
  </clipPath>
  </defs>
  </svg>
  