<svg width="22" height="22" viewBox="0 0 22 22" fill="none" xmlns="http://www.w3.org/2000/svg">
  <g clip-path="url(#clip0_1954_22231)">
    <path
      d="M11.6512 2.3779C11.5176 2.14421 11.2691 2 11 2C10.7309 2 10.4823 2.14421 10.3488 2.3779L6.68215 8.79456C6.54951 9.02669 6.55046 9.31188 6.68465 9.54311C6.81884 9.77435 7.06598 9.91667 7.33333 9.91667H14.6667C14.934 9.91667 15.1812 9.77435 15.3153 9.54311C15.4495 9.31188 15.4505 9.02669 15.3178 8.79456L11.6512 2.3779Z"
      stroke="#595961" stroke-width="1.5" stroke-linecap="round" stroke-linejoin="round" />
    <path
      d="M12.25 15.6498C12.25 16.6046 12.6293 17.5203 13.3044 18.1954C13.9795 18.8705 14.8952 19.2498 15.85 19.2498C16.8048 19.2498 17.7205 18.8705 18.3956 18.1954C19.0707 17.5203 19.45 16.6046 19.45 15.6498C19.45 14.695 19.0707 13.7794 18.3956 13.1042C17.7205 12.4291 16.8048 12.0498 15.85 12.0498C14.8952 12.0498 13.9795 12.4291 13.3044 13.1042C12.6293 13.7794 12.25 14.695 12.25 15.6498Z"
      stroke="#595961" stroke-width="1.5" stroke-linecap="round" stroke-linejoin="round" />
    <path
      d="M3.40482 12.5717C3.09226 12.8842 2.91667 13.3081 2.91667 13.7502V17.4168C2.91667 17.8589 3.09226 18.2828 3.40482 18.5953C3.71739 18.9079 4.14131 19.0835 4.58333 19.0835H8.25C8.69203 19.0835 9.11595 18.9079 9.42851 18.5953C9.74107 18.2828 9.91667 17.8589 9.91667 17.4168V13.7502C9.91667 13.3081 9.74107 12.8842 9.42851 12.5717C9.11595 12.2591 8.69203 12.0835 8.25 12.0835H4.58333C4.14131 12.0835 3.71738 12.2591 3.40482 12.5717Z"
      stroke="#595961" stroke-width="1.5" stroke-linecap="round" stroke-linejoin="round" />
  </g>
  <defs>
    <clipPath id="clip0_1954_22231">
      <rect width="22" height="22" fill="white" />
    </clipPath>
  </defs>
</svg>