<svg width="28" height="28" viewBox="0 0 28 28" fill="none" xmlns="http://www.w3.org/2000/svg">
  <path d="M10.5 5.83325H8.16667C7.54783 5.83325 6.95434 6.07908 6.51675 6.51667C6.07917 6.95425 5.83334 7.54775 5.83334 8.16659V22.1666C5.83334 22.7854 6.07917 23.3789 6.51675 23.8165C6.95434 24.2541 7.54783 24.4999 8.16667 24.4999H19.8333C20.4522 24.4999 21.0457 24.2541 21.4833 23.8165C21.9208 23.3789 22.1667 22.7854 22.1667 22.1666V8.16659C22.1667 7.54775 21.9208 6.95425 21.4833 6.51667C21.0457 6.07908 20.4522 5.83325 19.8333 5.83325H17.5" stroke="#844AFF" stroke-width="2" stroke-linecap="round" stroke-linejoin="round"/>
  <path d="M10.5 5.83333C10.5 5.21449 10.7458 4.621 11.1834 4.18342C11.621 3.74583 12.2145 3.5 12.8333 3.5H15.1667C15.7855 3.5 16.379 3.74583 16.8166 4.18342C17.2542 4.621 17.5 5.21449 17.5 5.83333C17.5 6.45217 17.2542 7.04566 16.8166 7.48325C16.379 7.92083 15.7855 8.16667 15.1667 8.16667H12.8333C12.2145 8.16667 11.621 7.92083 11.1834 7.48325C10.7458 7.04566 10.5 6.45217 10.5 5.83333Z" fill="#844AFF" stroke="#844AFF" stroke-width="2" stroke-linecap="round" stroke-linejoin="round"/>
  <path d="M11.6667 16.3333H16.3333" stroke="#844AFF" stroke-width="2" stroke-linecap="round" stroke-linejoin="round"/>
  <path d="M14 14V18.6667" stroke="#844AFF" stroke-width="2" stroke-linecap="round" stroke-linejoin="round"/>
  </svg>
  